<svg width="39" height="40" viewBox="0 0 39 40" fill="none" xmlns="http://www.w3.org/2000/svg">
<path d="M10.8643 24.875H28.1364M10.5864 21.625H28.4143M12.5819 11.875H26.4172M12.5819 11.875C11.5988 11.875 11.1081 11.875 10.7457 12.07C10.427 12.2429 10.1753 12.5175 10.0307 12.85C9.86656 13.2286 9.90719 13.7178 9.99169 14.696L11.2917 29.8686C11.4363 31.5456 11.5078 32.3874 11.8799 33.0211C12.2085 33.5805 12.6969 34.0287 13.2823 34.3081C13.9486 34.625 14.7887 34.625 16.4738 34.625H22.5269C24.2104 34.625 25.0522 34.625 25.7168 34.3081C26.3022 34.0287 26.7906 33.5805 27.1192 33.0211C27.4929 32.3874 27.5644 31.5472 27.7074 29.8686L29.0074 14.6944C29.0919 13.7161 29.1342 13.2286 28.9701 12.8516C28.8254 12.5191 28.5737 12.2446 28.2551 12.0716C27.8927 11.875 27.3987 11.875 26.4172 11.875M12.5819 11.875H10.9683C9.50581 11.875 8.77456 11.875 8.35044 11.5695C8.16474 11.4357 8.0094 11.2642 7.89459 11.0662C7.77977 10.8682 7.70807 10.6482 7.68419 10.4206C7.62894 9.90063 7.99294 9.26363 8.71931 7.99288C9.26206 7.04225 9.53344 6.56612 9.91531 6.22C10.2561 5.91031 10.6588 5.67656 11.0967 5.53425C11.5842 5.375 12.1334 5.375 13.2271 5.375H25.7721C26.8673 5.375 27.4133 5.375 27.9041 5.53425C28.3428 5.67563 28.7442 5.90962 29.0838 6.22C29.4657 6.56612 29.7371 7.04063 30.2798 7.99125C31.0062 9.262 31.3702 9.899 31.3149 10.4206C31.2911 10.6482 31.2194 10.8682 31.1045 11.0662C30.9897 11.2642 30.8344 11.4357 30.6487 11.5695C30.2278 11.875 29.4933 11.875 28.0341 11.875H26.4172" stroke="white" stroke-width="2" stroke-linecap="round" stroke-linejoin="round"/>
</svg>
