<svg width="31" height="31" viewBox="0 0 31 31" fill="none" xmlns="http://www.w3.org/2000/svg">
<path d="M2.58301 15.5C2.58301 22.6339 8.3658 28.4167 15.4997 28.4167C22.6336 28.4167 28.4163 22.6339 28.4163 15.5C28.4163 8.36613 22.6336 2.58333 15.4997 2.58333C8.3658 2.58333 2.58301 8.36613 2.58301 15.5Z" stroke="white" stroke-width="1.5" stroke-linecap="round" stroke-linejoin="round"/>
<path d="M16.7911 2.64792C16.7911 2.64792 20.6661 7.75 20.6661 15.5C20.6661 23.25 16.7911 28.3521 16.7911 28.3521M14.2077 28.3521C14.2077 28.3521 10.3327 23.25 10.3327 15.5C10.3327 7.75 14.2077 2.64792 14.2077 2.64792M3.39648 20.0208H27.6023M3.39648 10.9792H27.6023" stroke="white" stroke-width="1.5" stroke-linecap="round" stroke-linejoin="round"/>
</svg>
