<svg aria-hidden="true" style="position: absolute; width: 0; height: 0; overflow: hidden;" version="1.1" xmlns="http://www.w3.org/2000/svg" xmlns:xlink="http://www.w3.org/1999/xlink">
<defs>
<symbol id="icon-ci_coffe-to-go" viewBox="0 0 31 32">
<path stroke-linejoin="round" stroke-linecap="round" stroke-miterlimit="4" stroke-width="1.6" d="M8.691 19.9h13.818M8.469 17.3h14.262M10.066 9.5h11.068M10.066 9.5c-0.786 0-1.179 0-1.469 0.156-0.255 0.138-0.456 0.358-0.572 0.624-0.131 0.303-0.099 0.694-0.031 1.477l1.040 12.138c0.116 1.342 0.173 2.015 0.471 2.522 0.263 0.448 0.654 0.806 1.122 1.030 0.533 0.254 1.205 0.254 2.553 0.254h4.842c1.347 0 2.020 0 2.552-0.254 0.468-0.224 0.859-0.582 1.122-1.030 0.299-0.507 0.356-1.179 0.471-2.522l1.040-12.139c0.068-0.783 0.101-1.173-0.030-1.474-0.116-0.266-0.317-0.486-0.572-0.624-0.29-0.157-0.685-0.157-1.47-0.157M10.066 9.5h-1.291c-1.17 0-1.755 0-2.094-0.244-0.149-0.107-0.273-0.244-0.365-0.403s-0.149-0.334-0.168-0.516c-0.044-0.416 0.247-0.926 0.828-1.942 0.434-0.76 0.651-1.141 0.957-1.418 0.273-0.248 0.595-0.435 0.945-0.549 0.39-0.127 0.829-0.127 1.704-0.127h10.036c0.876 0 1.313 0 1.706 0.127 0.351 0.113 0.672 0.3 0.944 0.549 0.306 0.277 0.523 0.657 0.957 1.417 0.581 1.017 0.872 1.526 0.828 1.943-0.019 0.182-0.076 0.358-0.168 0.516s-0.216 0.296-0.365 0.403c-0.337 0.244-0.924 0.244-2.092 0.244h-1.294"></path>
</symbol>
<symbol id="icon-fe_arrow-up" viewBox="0 0 32 32">
<path d="M20 26.667l-10.667-10.667 10.667-10.667 2.667 2.667-8 8 8 8-2.667 2.667z"></path>
</symbol>
<symbol id="icon-Group-2" viewBox="0 0 68 32">
<path stroke-linejoin="miter" stroke-linecap="round" stroke-miterlimit="4" stroke-width="4" d="M66 2h-64"></path>
<path stroke-linejoin="miter" stroke-linecap="round" stroke-miterlimit="4" stroke-width="4" d="M66 16h-64"></path>
<path stroke-linejoin="miter" stroke-linecap="round" stroke-miterlimit="4" stroke-width="4" d="M66 30h-64"></path>
</symbol>
<symbol id="icon-iconoir_language" viewBox="0 0 32 32">
<path stroke-linejoin="round" stroke-linecap="round" stroke-miterlimit="4" stroke-width="1.5484" d="M2.666 16c0 7.364 5.969 13.333 13.333 13.333s13.333-5.969 13.333-13.333c0-7.364-5.969-13.333-13.333-13.333s-13.333 5.969-13.333 13.333z"></path>
<path stroke-linejoin="round" stroke-linecap="round" stroke-miterlimit="4" stroke-width="1.5484" d="M17.333 2.733c0 0 4 5.267 4 13.267s-4 13.267-4 13.267M14.666 29.267c0 0-4-5.267-4-13.267s4-13.267 4-13.267M3.506 20.667h24.987M3.506 11.333h24.987"></path>
</symbol>
</defs>
</svg>
